<svg width="128" height="128" viewBox="0 0 128 128" fill="none" xmlns="http://www.w3.org/2000/svg">
  <rect width="128" height="128" rx="20" fill="#4285F4"/>
  <path d="M32 64C32 46.3269 46.3269 32 64 32C81.6731 32 96 46.3269 96 64C96 81.6731 81.6731 96 64 96C46.3269 96 32 81.6731 32 64Z" fill="white"/>
  <path d="M64 48C55.1634 48 48 55.1634 48 64C48 72.8366 55.1634 80 64 80C72.8366 80 80 72.8366 80 64C80 55.1634 72.8366 48 64 48Z" fill="#4285F4"/>
  <path d="M64 56C59.5817 56 56 59.5817 56 64C56 68.4183 59.5817 72 64 72C68.4183 72 72 68.4183 72 64C72 59.5817 68.4183 56 64 56Z" fill="white"/>
  <circle cx="64" cy="64" r="4" fill="#4285F4"/>
</svg> 