<svg width="48" height="48" viewBox="0 0 48 48" fill="none" xmlns="http://www.w3.org/2000/svg">
  <rect width="48" height="48" rx="8" fill="#4285F4"/>
  <path d="M12 24C12 17.3726 17.3726 12 24 12C30.6274 12 36 17.3726 36 24C36 30.6274 30.6274 36 24 36C17.3726 36 12 30.6274 12 24Z" fill="white"/>
  <path d="M24 18C20.6863 18 18 20.6863 18 24C18 27.3137 20.6863 30 24 30C27.3137 30 30 27.3137 30 24C30 20.6863 27.3137 18 24 18Z" fill="#4285F4"/>
  <path d="M24 21C22.3431 21 21 22.3431 21 24C21 25.6569 22.3431 27 24 27C25.6569 27 27 25.6569 27 24C27 22.3431 25.6569 21 24 21Z" fill="white"/>
</svg> 